<!DOCTYPE svg PUBLIC "-//W3C//DTD SVG 1.1//EN" "http://www.w3.org/Graphics/SVG/1.1/DTD/svg11.dtd">
<!-- Uploaded to: SVG Repo, www.svgrepo.com, Transformed by: SVG Repo Mixer Tools -->
<svg width="800px" height="800px" viewBox="0 0 24 24" id="Flat_Color" data-name="Flat Color" xmlns="http://www.w3.org/2000/svg" fill="#FF4B6B">
<g id="SVGRepo_bgCarrier" stroke-width="0"/>
<g id="SVGRepo_tracerCarrier" stroke-linecap="round" stroke-linejoin="round"/>
<g id="SVGRepo_iconCarrier">
<path id="primary" d="M17.4,8.38A7.1,7.1,0,0,1,15,3a1,1,0,0,0-1.55-.83,10.89,10.89,0,0,0-5,6.73A4.37,4.37,0,0,1,8,7.77,1,1,0,0,0,7.27,7a1,1,0,0,0-1,.25C5,8.58,4,12,4,14c0,5.08,2.92,8,8,8s8-3,8-8C20,11.22,18.62,9.71,17.4,8.38Z" style="fill:#FF4B6B"/>
</g>
</svg>