<svg class="t-sociallinks__svg" role="presentation" width="50px" height="50px" viewBox="0 0 100 100" fill="none" xmlns="http://www.w3.org/2000/svg"> <path d="M51.5101 10.0675C55.8728 10 60.2106 10.04 64.5433 10C64.8058 15.1028 66.6409 20.3005 70.3761 23.9082C74.1038 27.6059 79.3766 29.2985 84.5069 29.8711V43.2943C79.6991 43.1368 74.8688 42.1367 70.5061 40.0666C68.606 39.2066 66.8359 38.099 65.1033 36.9664C65.0808 46.707 65.1433 56.435 65.0408 66.1355C64.7808 70.7957 63.2432 75.4335 60.5331 79.2737C56.1728 85.6665 48.6049 89.8343 40.832 89.9643C36.0643 90.2368 31.3015 88.9367 27.2388 86.5416C20.5059 82.5714 15.7682 75.3035 15.0782 67.5031C14.9981 65.8355 14.9706 64.1704 15.0381 62.5428C15.6382 56.2 18.7759 50.1321 23.6461 46.0044C29.1664 41.1967 36.8993 38.9065 44.1397 40.2616C44.2072 45.1994 44.0097 50.1321 44.0097 55.0699C40.702 53.9998 36.8368 54.2999 33.9467 56.3075C31.8365 57.675 30.234 59.7702 29.3989 62.1403C28.7089 63.8304 28.9064 65.708 28.9464 67.5031C29.7389 72.9734 34.9992 77.5711 40.6145 77.0736C44.3372 77.0336 47.9049 74.8735 49.845 71.7108C50.4725 70.6032 51.1751 69.4707 51.2126 68.1681C51.5401 62.2053 51.4101 56.2675 51.4501 50.3046C51.4776 36.8664 51.4101 23.4657 51.5126 10.07L51.5101 10.0675Z" fill="#fff"></path> </svg>